<?xml version="1.0" encoding="UTF-8" standalone="no"?>
<!-- Created with Inkscape (http://www.inkscape.org/) -->

<svg
   xmlns:dc="http://purl.org/dc/elements/1.1/"
   xmlns:cc="http://creativecommons.org/ns#"
   xmlns:rdf="http://www.w3.org/1999/02/22-rdf-syntax-ns#"
   xmlns:svg="http://www.w3.org/2000/svg"
   xmlns="http://www.w3.org/2000/svg"
   version="1.1"
   width="128"
   height="128"
   id="svg2">
  <defs
     id="defs4" />
  <metadata
     id="metadata7">
    <rdf:RDF>
      <cc:Work
         rdf:about="">
        <dc:format>image/svg+xml</dc:format>
        <dc:type
           rdf:resource="http://purl.org/dc/dcmitype/StillImage" />
        <dc:title></dc:title>
      </cc:Work>
    </rdf:RDF>
  </metadata>
  <g
     transform="translate(0,-924.36218)"
     id="layer1">
    <rect
       width="128"
       height="128"
       rx="2.1428571"
       ry="2.1428571"
       x="0"
       y="924.36218"
       id="rect2985"
       style="color:#000000;fill:#00a2df;fill-opacity:0.94117647;fill-rule:nonzero;stroke:none;stroke-width:2;marker:none;visibility:visible;display:inline;overflow:visible;enable-background:accumulate" />
    <path
       d="m 97.256959,935.41989 c -7.222642,6.78572 -17.320524,15.80374 -21.647302,18.4809 -4.326779,2.67717 -16.515656,7.26581 -16.515656,7.26581 l -5.574034,1.79904 0,0.35389 -26.454539,0 c -1.062315,0 -1.916995,0.51649 -1.916995,1.15021 l 0,2.86075 -1.209182,0 c -1.13705,0 -2.064457,0.29226 -2.064457,0.67832 l 0,11.0301 c 0,0.38605 0.927407,0.70781 2.064457,0.70781 l 1.209182,0 0,2.83126 c 0,0.63369 0.85468,1.15019 1.916995,1.15019 l 5.986926,0 4.89571,26.57253 c 0.445669,2.4194 2.789566,4.3943 5.24962,4.3943 l 9.408023,0 c 2.460054,0 4.073215,-1.9749 3.627547,-4.3943 l -0.294924,-1.6516 c -0.0022,0 -0.05899,0.117 -0.05899,0.117 -0.89375,-3.0387 -3.294149,-3.1613 -4.187899,-5.5445 -0.893749,-2.3833 -2.542321,-9.84082 -1.946487,-10.79421 0.370306,-0.59244 1.80928,-1.25977 2.890239,-1.7105 l -1.297659,-6.98972 2.182425,0 0,0.38341 5.574034,1.79898 c 0,0 12.430054,4.58457 16.515655,7.26592 4.0856,2.68134 14.432506,11.68682 21.647298,18.48092 l 0,-13.35997 0,-17.96087 6.753734,-0.58983 c 0.73381,-0.0649 1.32715,-0.32178 1.32715,-0.70783 l 0,-11.03009 c 0,-0.38604 -0.59334,-0.61348 -1.32715,-0.67831 l -6.753734,-0.58986 0,-17.96077 0,-13.35998 z"
       id="path3763"
       style="color:#000000;fill:#ffffff;fill-opacity:1;fill-rule:nonzero;stroke:none;stroke-width:2;marker:none;visibility:visible;display:inline;overflow:visible;enable-background:accumulate" />
    <g
       transform="translate(-1.467574,0)"
       id="text4308"
       style="font-size:21.92465973px;font-style:normal;font-variant:normal;font-weight:normal;font-stretch:normal;text-align:center;line-height:125%;writing-mode:lr-tb;text-anchor:middle;color:#000000;fill:#ffffff;fill-opacity:1;fill-rule:nonzero;stroke:none;stroke-width:2;marker:none;visibility:visible;display:inline;overflow:visible;enable-background:accumulate;font-family:Brandon Grotesque Light;-inkscape-font-specification:Brandon Grotesque Light">
      <path
         d="m 10.101518,1038.2174 c 0.05481,2.2559 0.822162,4.1186 2.302059,5.588 1.47989,1.4694 3.343461,2.2303 5.590716,2.2829 2.257743,-0.053 4.127708,-0.8135 5.6099,-2.2829 1.482163,-1.4694 2.250429,-3.3321 2.304801,-5.588 -0.05437,-2.2481 -0.822638,-4.1154 -2.304801,-5.6017 -1.482193,-1.4862 -3.352157,-2.2572 -5.6099,-2.313 -2.247255,0.056 -4.110825,0.8268 -5.590716,2.313 -1.479898,1.4863 -2.24725,3.3536 -2.302059,5.6017 z m 0.964672,0 c 0.04887,-1.9681 0.723958,-3.6061 2.025264,-4.9138 1.301298,-1.3077 2.935576,-1.9864 4.902839,-2.0362 1.968159,0.05 3.606091,0.7285 4.913801,2.0362 1.307683,1.3077 1.986424,2.9457 2.036227,4.9138 -0.0498,1.9664 -0.728544,3.597 -2.036226,4.8919 -1.307711,1.2949 -2.945643,1.9663 -4.913802,2.0143 -1.967263,-0.048 -3.601541,-0.7194 -4.902839,-2.0143 -1.301306,-1.2949 -1.976394,-2.9255 -2.025264,-4.8919 z"
         id="path4313"
         style="marker:none" />
      <path
         d="m 29.264344,1040.2783 c 0.02192,1.7097 0.542625,3.0973 1.562112,4.1629 1.019479,1.0656 2.406194,1.6146 4.16015,1.6471 1.76536,-0.032 3.162124,-0.5815 4.190297,-1.6471 1.028149,-1.0656 1.55342,-2.4532 1.575815,-4.1629 l 0,-9.4713 c -0.0023,-0.079 -0.03062,-0.1457 -0.08496,-0.2001 -0.05437,-0.054 -0.121055,-0.083 -0.20006,-0.085 l -0.438488,0 c -0.108721,9e-4 -0.187283,0.027 -0.235687,0.077 -0.04843,0.05 -0.07218,0.1197 -0.07125,0.2083 l 0,9.3836 c -0.01371,1.4411 -0.435759,2.6095 -1.266133,3.5052 -0.830396,0.8957 -1.986906,1.357 -3.469533,1.3839 -1.471223,-0.028 -2.617684,-0.4928 -3.439387,-1.3949 -0.821711,-0.9021 -1.239187,-2.0741 -1.252429,-3.5161 l 0,-9.3617 c -0.0023,-0.079 -0.03061,-0.1457 -0.08496,-0.2001 -0.05436,-0.054 -0.121044,-0.083 -0.20006,-0.085 l -0.460412,0 c -0.07902,0 -0.145709,0.031 -0.20006,0.085 -0.05436,0.054 -0.08268,0.1211 -0.08496,0.2001 z"
         id="path4315"
         style="marker:none" />
      <path
         d="m 47.564895,1045.584 c 0.0023,0.079 0.0306,0.1457 0.08496,0.2001 0.05435,0.054 0.121036,0.083 0.20006,0.085 l 0.394639,0 c 0.11053,0 0.1964,-0.031 0.257611,-0.085 0.0612,-0.054 0.09226,-0.1211 0.09318,-0.2001 l 0,-14.1193 4.20948,0 c 0.0886,0 0.158028,-0.031 0.208282,-0.085 0.05023,-0.054 0.07581,-0.121 0.07673,-0.2 l 0,-0.3727 c -9.23e-4,-0.079 -0.0265,-0.1457 -0.07673,-0.2001 -0.05025,-0.054 -0.119681,-0.083 -0.208282,-0.085 l -9.427482,0 c -0.07902,9e-4 -0.145706,0.027 -0.20006,0.077 -0.05435,0.05 -0.08267,0.1197 -0.08496,0.2083 l 0,0.3288 c -0.0018,0.1001 0.01827,0.1796 0.06029,0.2385 0.04202,0.059 0.11693,0.089 0.224725,0.09 l 4.187556,0 z"
         id="path4317"
         style="marker:none" />
      <path
         d="m 55.603735,1045.584 c 0.0023,0.079 0.0306,0.1457 0.08496,0.2001 0.05435,0.054 0.121038,0.083 0.20006,0.085 l 8.791675,0 c 0.07901,0 0.145694,-0.031 0.20006,-0.085 0.05434,-0.054 0.08266,-0.1211 0.08496,-0.2001 l 0,-0.3508 c -0.0023,-0.079 -0.03061,-0.1457 -0.08496,-0.2 -0.05437,-0.054 -0.121053,-0.083 -0.20006,-0.085 l -8.024322,0 0,-6.4896 6.950027,0 c 0.07901,0 0.145695,-0.031 0.20006,-0.085 0.05434,-0.054 0.08266,-0.121 0.08496,-0.2 l 0,-0.3728 c -0.0023,-0.079 -0.03061,-0.1457 -0.08496,-0.2 -0.05436,-0.054 -0.121051,-0.083 -0.20006,-0.085 l -6.950027,0 0,-6.0511 8.024322,0 c 0.07901,0 0.145694,-0.031 0.20006,-0.085 0.05434,-0.054 0.08266,-0.121 0.08496,-0.2 l 0,-0.3727 c -0.0023,-0.079 -0.03061,-0.1457 -0.08496,-0.2001 -0.05437,-0.054 -0.121053,-0.083 -0.20006,-0.085 l -8.791675,0 c -0.07902,0 -0.145709,0.031 -0.200061,0.085 -0.05436,0.054 -0.08268,0.1211 -0.08496,0.2001 z"
         id="path4319"
         style="marker:none" />
      <path
         d="m 68.707147,1045.584 c 0.0023,0.079 0.0306,0.1457 0.08496,0.2001 0.05435,0.054 0.121039,0.083 0.20006,0.085 l 0.394639,0 c 0.110532,0 0.196403,-0.031 0.257611,-0.085 0.0612,-0.054 0.09226,-0.1211 0.09318,-0.2001 l 0,-5.6346 4.034085,0 c 0.140674,5e-4 0.275874,-4e-4 0.405601,0 0.129712,0 0.264912,-0.01 0.405601,-0.019 l 3.179035,5.7442 c 0.03196,0.066 0.07216,0.1151 0.120584,0.148 0.04841,0.033 0.110524,0.049 0.186357,0.049 l 0.679656,0 c 0.109153,-0.01 0.175839,-0.049 0.20006,-0.1315 0.0242,-0.082 0.0087,-0.1699 -0.04659,-0.2631 l -3.200959,-5.6784 c 1.061951,-0.3115 1.925223,-0.8724 2.589817,-1.6827 0.664569,-0.8103 1.007138,-1.7768 1.027705,-2.8995 -0.03655,-1.3657 -0.517062,-2.482 -1.441528,-3.349 -0.924488,-0.8669 -2.07369,-1.3145 -3.447608,-1.3428 l -5.437246,0 c -0.08861,0 -0.158041,0.031 -0.208282,0.085 -0.05025,0.054 -0.07582,0.1211 -0.07673,0.2001 z m 1.05237,-6.5554 0,-7.4981 4.60412,0 c 1.093012,0.023 2.009267,0.3768 2.748768,1.0606 0.73948,0.6837 1.124069,1.558 1.153771,2.6227 -0.03016,1.1085 -0.413834,2.0157 -1.15103,2.7213 -0.737218,0.7057 -1.647078,1.0702 -2.729585,1.0935 z"
         id="path4321"
         style="marker:none" />
      <path
         d="m 82.966741,1045.584 c 0.0023,0.079 0.0306,0.1457 0.08496,0.2001 0.05435,0.054 0.121039,0.083 0.20006,0.085 l 0.416563,0 c 0.07902,0 0.145703,-0.031 0.20006,-0.085 0.05435,-0.054 0.08267,-0.1211 0.08496,-0.2001 l 0,-13.33 c 9.1e-4,0 0.0046,0 0.01096,0 0.0064,0 0.01005,0 0.01096,0 2.57725,3.4066 4.593377,6.0633 6.048387,7.9702 1.454992,1.9068 2.506447,3.2769 3.15437,4.1101 0.647898,0.8333 1.049845,1.3428 1.205841,1.5286 0.155969,0.1857 0.223569,0.2609 0.2028,0.2254 l 0.285017,0 c 0.09134,4e-4 0.171727,-0.022 0.241168,-0.069 0.06941,-0.046 0.105953,-0.1183 0.109622,-0.2165 l 0,-14.9962 c -0.0023,-0.079 -0.03062,-0.1457 -0.08496,-0.2001 -0.05437,-0.054 -0.121055,-0.083 -0.20006,-0.085 l -0.438487,0 c -0.07903,0 -0.14572,0.031 -0.20006,0.085 -0.05437,0.054 -0.08269,0.1211 -0.08496,0.2001 l 0,13.1984 c 0.0036,0 -0.0037,0 -0.02193,0 l -10.523701,-13.7027 -0.372714,0 c -0.09044,9e-4 -0.167176,0.026 -0.230206,0.077 -0.06304,0.05 -0.09592,0.1197 -0.09866,0.2083 z"
         id="path4323"
         style="marker:none" />
      <path
         d="m 99.881269,1045.584 c 0.0023,0.079 0.0306,0.1457 0.08496,0.2001 0.05435,0.054 0.121031,0.083 0.200061,0.085 l 8.79167,0 c 0.079,0 0.1457,-0.031 0.20006,-0.085 0.0543,-0.054 0.0827,-0.1211 0.085,-0.2001 l 0,-0.3508 c -0.002,-0.079 -0.0306,-0.1457 -0.085,-0.2 -0.0544,-0.054 -0.12105,-0.083 -0.20006,-0.085 l -8.02432,0 0,-6.4896 6.95003,0 c 0.079,0 0.14569,-0.031 0.20006,-0.085 0.0543,-0.054 0.0827,-0.121 0.0849,-0.2 l 0,-0.3728 c -0.002,-0.079 -0.0306,-0.1457 -0.0849,-0.2 -0.0544,-0.054 -0.12105,-0.083 -0.20006,-0.085 l -6.95003,0 0,-6.0511 8.02432,0 c 0.079,0 0.1457,-0.031 0.20006,-0.085 0.0543,-0.054 0.0827,-0.121 0.085,-0.2 l 0,-0.3727 c -0.002,-0.079 -0.0306,-0.1457 -0.085,-0.2001 -0.0544,-0.054 -0.12105,-0.083 -0.20006,-0.085 l -8.79167,0 c -0.079,0 -0.14571,0.031 -0.200061,0.085 -0.05436,0.054 -0.08268,0.1211 -0.08496,0.2001 z"
         id="path4325"
         style="marker:none" />
      <path
         d="m 115.30866,1045.584 c 0.002,0.079 0.0306,0.1457 0.085,0.2001 0.0543,0.054 0.12103,0.083 0.20006,0.085 l 0.39464,0 c 0.11053,0 0.1964,-0.031 0.25761,-0.085 0.0612,-0.054 0.0923,-0.1211 0.0932,-0.2001 l 0,-14.1193 4.20948,0 c 0.0886,0 0.15803,-0.031 0.20828,-0.085 0.0502,-0.054 0.0758,-0.121 0.0767,-0.2 l 0,-0.3727 c -9.3e-4,-0.079 -0.0265,-0.1457 -0.0767,-0.2001 -0.0503,-0.054 -0.11968,-0.083 -0.20828,-0.085 l -9.42748,0 c -0.079,9e-4 -0.14571,0.027 -0.20006,0.077 -0.0544,0.05 -0.0827,0.1197 -0.085,0.2083 l 0,0.3288 c -0.002,0.1001 0.0183,0.1796 0.0603,0.2385 0.042,0.059 0.11693,0.089 0.22473,0.09 l 4.18755,0 z"
         id="path4327"
         style="marker:none" />
    </g>
  </g>
</svg>
